<?xml version="1.0" standalone="no"?>
<!DOCTYPE svg PUBLIC "-//W3C//DTD SVG 20010904//EN"
 "http://www.w3.org/TR/2001/REC-SVG-20010904/DTD/svg10.dtd">
<svg version="1.0" xmlns="http://www.w3.org/2000/svg"
 width="1024.000000pt" height="1024.000000pt" viewBox="0 0 1024.000000 1024.000000"
 preserveAspectRatio="xMidYMid meet">
<metadata>
Created by potrace 1.11, written by Peter Selinger 2001-2013
</metadata>
<g transform="translate(0.000000,1024.000000) scale(0.100000,-0.100000)"
fill="#000000" stroke="none">
<path d="M1319 9606 c-2 -2 -22 -7 -44 -10 -136 -22 -309 -111 -410 -212 -88
-88 -162 -210 -203 -335 l-27 -84 -3 -3810 c-2 -3466 -1 -3817 14 -3890 9 -44
23 -96 31 -115 8 -19 21 -51 30 -70 43 -101 166 -245 263 -310 65 -44 165 -90
245 -114 l70 -21 3815 -2 c3152 -2 3825 0 3870 11 213 52 324 119 470 285 16
19 30 38 30 42 0 4 6 14 13 21 13 13 65 118 85 173 43 115 42 -61 42 3950 0
3682 -1 3792 -19 3875 -40 179 -146 348 -280 448 -20 15 -38 29 -41 33 -3 3
-34 21 -70 41 -58 32 -140 63 -225 85 -30 8 -7648 17 -7656 9z"/>
</g>
</svg>
